<mxfile host="app.diagrams.net" agent="Mozilla/5.0 (Windows NT 10.0; Win64; x64) AppleWebKit/537.36 (KHTML, like Gecko) Chrome/130.0.0.0 Safari/537.36" version="24.8.4">
  <diagram name="第 1 页" id="YVxNTH_0DnEzJDXxZ_kR">
    <mxGraphModel dx="1434" dy="738" grid="1" gridSize="10" guides="1" tooltips="1" connect="1" arrows="1" fold="1" page="1" pageScale="1" pageWidth="827" pageHeight="1169" math="0" shadow="0">
      <root>
        <mxCell id="0" />
        <mxCell id="1" parent="0" />
        <mxCell id="17Iy-YXGDgX40kbHxWd_-2" value="br1" style="rounded=0;whiteSpace=wrap;html=1;" vertex="1" parent="1">
          <mxGeometry x="280" y="10" width="86" height="60" as="geometry" />
        </mxCell>
        <mxCell id="17Iy-YXGDgX40kbHxWd_-3" value="mongodb" style="rounded=0;whiteSpace=wrap;html=1;" vertex="1" parent="1">
          <mxGeometry x="480" y="90" width="70" height="60" as="geometry" />
        </mxCell>
        <mxCell id="17Iy-YXGDgX40kbHxWd_-5" value="sbi(123.100)" style="text;html=1;align=center;verticalAlign=middle;whiteSpace=wrap;rounded=0;" vertex="1" parent="1">
          <mxGeometry x="450" y="90" width="70" height="30" as="geometry" />
        </mxCell>
        <mxCell id="17Iy-YXGDgX40kbHxWd_-6" value="gnb" style="rounded=0;whiteSpace=wrap;html=1;" vertex="1" parent="1">
          <mxGeometry x="220" y="330" width="56" height="50" as="geometry" />
        </mxCell>
        <mxCell id="17Iy-YXGDgX40kbHxWd_-8" value="r1(200.1)" style="text;html=1;align=center;verticalAlign=middle;resizable=0;points=[];autosize=1;strokeColor=none;fillColor=none;" vertex="1" parent="1">
          <mxGeometry x="190" y="330" width="70" height="30" as="geometry" />
        </mxCell>
        <mxCell id="17Iy-YXGDgX40kbHxWd_-10" value="" style="group" vertex="1" connectable="0" parent="1">
          <mxGeometry x="40" y="330" width="100" height="50" as="geometry" />
        </mxCell>
        <mxCell id="17Iy-YXGDgX40kbHxWd_-1" value="UE" style="rounded=0;whiteSpace=wrap;html=1;" vertex="1" parent="17Iy-YXGDgX40kbHxWd_-10">
          <mxGeometry width="60" height="50" as="geometry" />
        </mxCell>
        <mxCell id="17Iy-YXGDgX40kbHxWd_-7" value="r1(200.2)" style="text;html=1;align=center;verticalAlign=middle;whiteSpace=wrap;rounded=0;" vertex="1" parent="17Iy-YXGDgX40kbHxWd_-10">
          <mxGeometry x="10" width="90" height="30" as="geometry" />
        </mxCell>
        <mxCell id="17Iy-YXGDgX40kbHxWd_-11" value="" style="group" vertex="1" connectable="0" parent="1">
          <mxGeometry x="140" y="160" width="100" height="60" as="geometry" />
        </mxCell>
        <mxCell id="17Iy-YXGDgX40kbHxWd_-12" value="AMF" style="rounded=0;whiteSpace=wrap;html=1;" vertex="1" parent="17Iy-YXGDgX40kbHxWd_-11">
          <mxGeometry width="60" height="50" as="geometry" />
        </mxCell>
        <mxCell id="17Iy-YXGDgX40kbHxWd_-13" value="sbi(123.6)" style="text;html=1;align=center;verticalAlign=middle;whiteSpace=wrap;rounded=0;" vertex="1" parent="17Iy-YXGDgX40kbHxWd_-11">
          <mxGeometry x="10" width="90" height="30" as="geometry" />
        </mxCell>
        <mxCell id="17Iy-YXGDgX40kbHxWd_-14" value="n2(124.1)" style="text;html=1;align=center;verticalAlign=middle;resizable=0;points=[];autosize=1;strokeColor=none;fillColor=none;" vertex="1" parent="17Iy-YXGDgX40kbHxWd_-11">
          <mxGeometry x="20" y="20" width="70" height="30" as="geometry" />
        </mxCell>
        <mxCell id="17Iy-YXGDgX40kbHxWd_-15" value="n3(130.2)" style="text;html=1;align=center;verticalAlign=middle;resizable=0;points=[];autosize=1;strokeColor=none;fillColor=none;" vertex="1" parent="1">
          <mxGeometry x="260" y="340" width="70" height="30" as="geometry" />
        </mxCell>
        <mxCell id="17Iy-YXGDgX40kbHxWd_-16" value="n2(124.2)" style="text;html=1;align=center;verticalAlign=middle;resizable=0;points=[];autosize=1;strokeColor=none;fillColor=none;" vertex="1" parent="1">
          <mxGeometry x="230" y="300" width="70" height="30" as="geometry" />
        </mxCell>
        <mxCell id="17Iy-YXGDgX40kbHxWd_-17" value="" style="endArrow=none;html=1;rounded=0;entryX=0.257;entryY=0.867;entryDx=0;entryDy=0;entryPerimeter=0;" edge="1" parent="1" source="17Iy-YXGDgX40kbHxWd_-16" target="17Iy-YXGDgX40kbHxWd_-14">
          <mxGeometry width="50" height="50" relative="1" as="geometry">
            <mxPoint x="390" y="410" as="sourcePoint" />
            <mxPoint x="440" y="360" as="targetPoint" />
          </mxGeometry>
        </mxCell>
        <mxCell id="17Iy-YXGDgX40kbHxWd_-18" value="" style="endArrow=none;html=1;rounded=0;" edge="1" parent="1" source="17Iy-YXGDgX40kbHxWd_-7">
          <mxGeometry width="50" height="50" relative="1" as="geometry">
            <mxPoint x="390" y="410" as="sourcePoint" />
            <mxPoint x="200" y="345" as="targetPoint" />
          </mxGeometry>
        </mxCell>
        <mxCell id="17Iy-YXGDgX40kbHxWd_-19" value="internet" style="rounded=0;whiteSpace=wrap;html=1;" vertex="1" parent="1">
          <mxGeometry x="680" y="320" width="56" height="50" as="geometry" />
        </mxCell>
        <mxCell id="17Iy-YXGDgX40kbHxWd_-20" value="n6(10.1.0.2)" style="text;html=1;align=center;verticalAlign=middle;resizable=0;points=[];autosize=1;strokeColor=none;fillColor=none;" vertex="1" parent="1">
          <mxGeometry x="620" y="340" width="90" height="30" as="geometry" />
        </mxCell>
        <mxCell id="17Iy-YXGDgX40kbHxWd_-22" value="smf" style="rounded=0;whiteSpace=wrap;html=1;" vertex="1" parent="1">
          <mxGeometry x="386" y="160" width="56" height="50" as="geometry" />
        </mxCell>
        <mxCell id="17Iy-YXGDgX40kbHxWd_-21" value="n4(140.2)" style="text;html=1;align=center;verticalAlign=middle;resizable=0;points=[];autosize=1;strokeColor=none;fillColor=none;" vertex="1" parent="1">
          <mxGeometry x="379" y="190" width="70" height="30" as="geometry" />
        </mxCell>
        <mxCell id="17Iy-YXGDgX40kbHxWd_-23" value="sbi(123.9)" style="text;html=1;align=center;verticalAlign=middle;resizable=0;points=[];autosize=1;strokeColor=none;fillColor=none;" vertex="1" parent="1">
          <mxGeometry x="375" y="150" width="80" height="30" as="geometry" />
        </mxCell>
        <mxCell id="17Iy-YXGDgX40kbHxWd_-24" value="upf" style="rounded=0;whiteSpace=wrap;html=1;" vertex="1" parent="1">
          <mxGeometry x="460" y="320" width="60" height="50" as="geometry" />
        </mxCell>
        <mxCell id="17Iy-YXGDgX40kbHxWd_-25" value="n4(140.1)" style="text;html=1;align=center;verticalAlign=middle;resizable=0;points=[];autosize=1;strokeColor=none;fillColor=none;" vertex="1" parent="1">
          <mxGeometry x="455" y="280" width="70" height="30" as="geometry" />
        </mxCell>
        <mxCell id="17Iy-YXGDgX40kbHxWd_-26" value="" style="endArrow=none;html=1;rounded=0;" edge="1" parent="1" source="17Iy-YXGDgX40kbHxWd_-25" target="17Iy-YXGDgX40kbHxWd_-21">
          <mxGeometry width="50" height="50" relative="1" as="geometry">
            <mxPoint x="263" y="310" as="sourcePoint" />
            <mxPoint x="188" y="216" as="targetPoint" />
          </mxGeometry>
        </mxCell>
        <mxCell id="17Iy-YXGDgX40kbHxWd_-27" value="n3(130.1)" style="text;html=1;align=center;verticalAlign=middle;resizable=0;points=[];autosize=1;strokeColor=none;fillColor=none;" vertex="1" parent="1">
          <mxGeometry x="385" y="340" width="70" height="30" as="geometry" />
        </mxCell>
        <mxCell id="17Iy-YXGDgX40kbHxWd_-28" value="" style="endArrow=none;html=1;rounded=0;entryX=0.043;entryY=0.467;entryDx=0;entryDy=0;entryPerimeter=0;" edge="1" parent="1" source="17Iy-YXGDgX40kbHxWd_-15" target="17Iy-YXGDgX40kbHxWd_-27">
          <mxGeometry width="50" height="50" relative="1" as="geometry">
            <mxPoint x="390" y="410" as="sourcePoint" />
            <mxPoint x="400" y="360" as="targetPoint" />
          </mxGeometry>
        </mxCell>
        <mxCell id="17Iy-YXGDgX40kbHxWd_-29" value="n6-0(10.1.0.1)" style="text;html=1;align=center;verticalAlign=middle;resizable=0;points=[];autosize=1;strokeColor=none;fillColor=none;" vertex="1" parent="1">
          <mxGeometry x="500" y="320" width="100" height="30" as="geometry" />
        </mxCell>
        <mxCell id="17Iy-YXGDgX40kbHxWd_-30" value="n6-1(10.1.1.1)" style="text;html=1;align=center;verticalAlign=middle;resizable=0;points=[];autosize=1;strokeColor=none;fillColor=none;" vertex="1" parent="1">
          <mxGeometry x="500" y="340" width="100" height="30" as="geometry" />
        </mxCell>
        <mxCell id="17Iy-YXGDgX40kbHxWd_-31" value="" style="endArrow=none;html=1;rounded=0;" edge="1" parent="1" source="17Iy-YXGDgX40kbHxWd_-20" target="17Iy-YXGDgX40kbHxWd_-29">
          <mxGeometry width="50" height="50" relative="1" as="geometry">
            <mxPoint x="390" y="410" as="sourcePoint" />
            <mxPoint x="440" y="360" as="targetPoint" />
          </mxGeometry>
        </mxCell>
        <mxCell id="17Iy-YXGDgX40kbHxWd_-32" value="host" style="rounded=0;whiteSpace=wrap;html=1;" vertex="1" parent="1">
          <mxGeometry x="660" y="70" width="80" height="60" as="geometry" />
        </mxCell>
        <mxCell id="17Iy-YXGDgX40kbHxWd_-33" value="web" style="rounded=0;whiteSpace=wrap;html=1;" vertex="1" parent="1">
          <mxGeometry x="600" y="175" width="80" height="60" as="geometry" />
        </mxCell>
        <mxCell id="17Iy-YXGDgX40kbHxWd_-34" value="sbi(123.200)" style="text;html=1;align=center;verticalAlign=middle;whiteSpace=wrap;rounded=0;" vertex="1" parent="1">
          <mxGeometry x="605" y="85" width="70" height="30" as="geometry" />
        </mxCell>
        <mxCell id="17Iy-YXGDgX40kbHxWd_-35" value="sbi(123.201)" style="text;html=1;align=center;verticalAlign=middle;whiteSpace=wrap;rounded=0;" vertex="1" parent="1">
          <mxGeometry x="550" y="175" width="70" height="30" as="geometry" />
        </mxCell>
        <mxCell id="17Iy-YXGDgX40kbHxWd_-36" value="" style="endArrow=none;html=1;rounded=0;exitX=0.75;exitY=0;exitDx=0;exitDy=0;" edge="1" parent="1" source="17Iy-YXGDgX40kbHxWd_-13" target="17Iy-YXGDgX40kbHxWd_-2">
          <mxGeometry width="50" height="50" relative="1" as="geometry">
            <mxPoint x="390" y="410" as="sourcePoint" />
            <mxPoint x="440" y="360" as="targetPoint" />
          </mxGeometry>
        </mxCell>
        <mxCell id="17Iy-YXGDgX40kbHxWd_-37" value="" style="endArrow=none;html=1;rounded=0;entryX=0.5;entryY=1;entryDx=0;entryDy=0;exitX=0.475;exitY=0.1;exitDx=0;exitDy=0;exitPerimeter=0;" edge="1" parent="1" source="17Iy-YXGDgX40kbHxWd_-23" target="17Iy-YXGDgX40kbHxWd_-2">
          <mxGeometry width="50" height="50" relative="1" as="geometry">
            <mxPoint x="390" y="410" as="sourcePoint" />
            <mxPoint x="440" y="360" as="targetPoint" />
          </mxGeometry>
        </mxCell>
        <mxCell id="17Iy-YXGDgX40kbHxWd_-38" value="" style="endArrow=none;html=1;rounded=0;entryX=1;entryY=0.75;entryDx=0;entryDy=0;" edge="1" parent="1" source="17Iy-YXGDgX40kbHxWd_-5" target="17Iy-YXGDgX40kbHxWd_-2">
          <mxGeometry width="50" height="50" relative="1" as="geometry">
            <mxPoint x="390" y="410" as="sourcePoint" />
            <mxPoint x="440" y="360" as="targetPoint" />
          </mxGeometry>
        </mxCell>
        <mxCell id="17Iy-YXGDgX40kbHxWd_-39" value="" style="endArrow=none;html=1;rounded=0;entryX=1;entryY=0.25;entryDx=0;entryDy=0;" edge="1" parent="1" source="17Iy-YXGDgX40kbHxWd_-34" target="17Iy-YXGDgX40kbHxWd_-2">
          <mxGeometry width="50" height="50" relative="1" as="geometry">
            <mxPoint x="390" y="410" as="sourcePoint" />
            <mxPoint x="440" y="360" as="targetPoint" />
          </mxGeometry>
        </mxCell>
        <mxCell id="17Iy-YXGDgX40kbHxWd_-40" value="" style="endArrow=none;html=1;rounded=0;entryX=1;entryY=1;entryDx=0;entryDy=0;exitX=0;exitY=0.75;exitDx=0;exitDy=0;" edge="1" parent="1" source="17Iy-YXGDgX40kbHxWd_-35" target="17Iy-YXGDgX40kbHxWd_-2">
          <mxGeometry width="50" height="50" relative="1" as="geometry">
            <mxPoint x="390" y="410" as="sourcePoint" />
            <mxPoint x="440" y="360" as="targetPoint" />
          </mxGeometry>
        </mxCell>
        <mxCell id="17Iy-YXGDgX40kbHxWd_-42" value="虚拟机" style="text;html=1;align=center;verticalAlign=middle;resizable=0;points=[];autosize=1;strokeColor=none;fillColor=none;" vertex="1" parent="1">
          <mxGeometry x="690" y="105" width="60" height="30" as="geometry" />
        </mxCell>
        <mxCell id="17Iy-YXGDgX40kbHxWd_-43" value="NAT:10.0.15.2" style="text;html=1;align=center;verticalAlign=middle;resizable=0;points=[];autosize=1;strokeColor=none;fillColor=none;" vertex="1" parent="1">
          <mxGeometry x="720" y="55" width="100" height="30" as="geometry" />
        </mxCell>
        <mxCell id="17Iy-YXGDgX40kbHxWd_-44" value="host-only：192.168.56.116" style="text;html=1;align=center;verticalAlign=middle;resizable=0;points=[];autosize=1;strokeColor=none;fillColor=none;" vertex="1" parent="1">
          <mxGeometry x="710" y="75" width="170" height="30" as="geometry" />
        </mxCell>
        <mxCell id="17Iy-YXGDgX40kbHxWd_-45" value="默认网关：10.0.123.0" style="text;html=1;align=center;verticalAlign=middle;whiteSpace=wrap;rounded=0;fontColor=#ea0b0b;" vertex="1" parent="1">
          <mxGeometry x="850" y="205" width="90" height="30" as="geometry" />
        </mxCell>
        <mxCell id="17Iy-YXGDgX40kbHxWd_-46" value="&lt;font color=&quot;#ff0000&quot;&gt;路由表&lt;/font&gt;&lt;br&gt;&lt;div&gt;&lt;font color=&quot;#ff0000&quot;&gt;10.0.123.0 都走10.0.123.200&lt;/font&gt;&lt;/div&gt;" style="text;html=1;align=center;verticalAlign=middle;resizable=0;points=[];autosize=1;strokeColor=none;fillColor=none;" vertex="1" parent="1">
          <mxGeometry x="875" y="45" width="180" height="40" as="geometry" />
        </mxCell>
        <mxCell id="17Iy-YXGDgX40kbHxWd_-47" value="" style="endArrow=none;html=1;rounded=0;exitX=0.95;exitY=0.533;exitDx=0;exitDy=0;exitPerimeter=0;" edge="1" parent="1" source="17Iy-YXGDgX40kbHxWd_-42" target="17Iy-YXGDgX40kbHxWd_-46">
          <mxGeometry width="50" height="50" relative="1" as="geometry">
            <mxPoint x="390" y="410" as="sourcePoint" />
            <mxPoint x="440" y="360" as="targetPoint" />
          </mxGeometry>
        </mxCell>
        <mxCell id="17Iy-YXGDgX40kbHxWd_-48" value="" style="endArrow=none;html=1;rounded=0;entryX=0;entryY=0.5;entryDx=0;entryDy=0;exitX=1;exitY=0.5;exitDx=0;exitDy=0;" edge="1" parent="1" source="17Iy-YXGDgX40kbHxWd_-33" target="17Iy-YXGDgX40kbHxWd_-45">
          <mxGeometry width="50" height="50" relative="1" as="geometry">
            <mxPoint x="390" y="410" as="sourcePoint" />
            <mxPoint x="440" y="360" as="targetPoint" />
          </mxGeometry>
        </mxCell>
        <mxCell id="17Iy-YXGDgX40kbHxWd_-50" value="&lt;font color=&quot;#ff0000&quot;&gt;NAT&lt;/font&gt;&lt;br&gt;&lt;div&gt;源地址是10.0.123.0的都会经过伪装从enp0s3发出&lt;/div&gt;" style="text;html=1;align=center;verticalAlign=middle;resizable=0;points=[];autosize=1;strokeColor=none;fillColor=none;" vertex="1" parent="1">
          <mxGeometry x="830" y="100" width="290" height="40" as="geometry" />
        </mxCell>
        <mxCell id="17Iy-YXGDgX40kbHxWd_-51" value="sudo iptables -s 10.0.123.0/24 -t nat -A POSTROUTING -j MASQUERADE" style="text;whiteSpace=wrap;html=1;" vertex="1" parent="1">
          <mxGeometry x="720" y="140" width="430" height="40" as="geometry" />
        </mxCell>
      </root>
    </mxGraphModel>
  </diagram>
</mxfile>
